<svg width="172" height="50" viewBox="0 0 172 50" fill="none" xmlns="http://www.w3.org/2000/svg">
<g filter="url(#filter0_d_1861_17)">
<rect x="4" y="4" width="164" height="42" rx="21" fill="#734332"/>
</g>
<g filter="url(#filter1_d_1861_17)">
<path d="M40.8957 22.7404C40.7466 23.2796 40.4485 23.7468 40.0568 24.0556C39.744 24.3027 39.3888 24.4318 39.0395 24.4318C38.908 24.4318 38.7794 24.4139 38.6522 24.3771C38.1903 24.2417 37.8162 23.866 37.6262 23.3458C37.4522 22.8717 37.4405 22.3139 37.5896 21.7746C37.7402 21.2355 38.0383 20.7682 38.4286 20.4594C38.8583 20.1202 39.3699 20.0029 39.8332 20.138C40.2951 20.2733 40.6707 20.6491 40.8607 21.1692C41.0331 21.6434 41.0463 22.2012 40.8957 22.7404ZM31.1234 21.3778C31.673 21.3778 32.1977 21.0644 32.5631 20.5177C32.8949 20.022 33.0776 19.3727 33.0776 18.6891C33.0776 18.0049 32.8949 17.3557 32.5631 16.86C32.1977 16.3134 31.673 16 31.1234 16C30.5724 16 30.0477 16.3133 29.6823 16.86C29.352 17.3557 29.1693 18.0049 29.1693 18.6891C29.1693 19.3727 29.352 20.022 29.6823 20.5177C30.0477 21.0644 30.5724 21.3778 31.1234 21.3778ZM35.8766 21.3778C36.4276 21.3778 36.9523 21.0644 37.3177 20.5177C37.648 20.022 37.8307 19.3727 37.8307 18.6891C37.8307 18.0049 37.648 17.3557 37.3177 16.86C36.9523 16.3134 36.4276 16 35.8766 16C35.327 16 34.8023 16.3133 34.4369 16.86C34.1051 17.3557 33.9224 18.0049 33.9224 18.6891C33.9224 19.3727 34.1051 20.022 34.4369 20.5177C34.8023 21.0644 35.327 21.3778 35.8766 21.3778ZM29.4104 21.7749C29.2599 21.2355 28.9617 20.7683 28.5715 20.4594C28.1418 20.1202 27.6302 20.003 27.1669 20.138C26.7035 20.2734 26.3294 20.6491 26.1393 21.1692C25.9669 21.6434 25.9537 22.2012 26.1043 22.7405C26.2534 23.2796 26.5515 23.7468 26.9432 24.0557C27.256 24.3027 27.6112 24.4319 27.9605 24.4319C28.0906 24.4319 28.2206 24.4139 28.3463 24.3771C28.8097 24.2417 29.1838 23.866 29.3738 23.3459C29.5478 22.8717 29.5595 22.3139 29.4104 21.7749ZM36.3677 23.0896C35.5667 22.2272 34.5494 21.7527 33.5 21.7527C32.4506 21.7527 31.4318 22.2272 30.6338 23.0896C29.8708 23.9119 29.3388 25.053 29.1342 26.3033C29.0041 27.1008 29.2409 27.8683 29.786 28.409C30.3531 28.9716 31.0942 29.1424 31.8192 28.8783C32.3556 28.6822 32.9212 28.5828 33.5 28.5828C34.0788 28.5828 34.6445 28.6822 35.1809 28.8783C35.4045 28.9597 35.6296 29 35.8503 29C36.3458 29 36.8208 28.7982 37.2125 28.409C37.7591 27.8684 37.9959 27.1008 37.8658 26.3033C37.6612 25.053 37.1292 23.9119 36.3677 23.0896Z" fill="#FF9900"/>
</g>
<g filter="url(#filter2_d_1861_17)">
<path d="M64.08 32.1C63.16 32.1 62.4067 31.9467 61.82 31.64C61.2333 31.32 60.8067 30.8267 60.54 30.16C60.3533 29.7067 60.2133 29.16 60.12 28.52C60.04 27.88 60 27.14 60 26.3C60 24.94 60.0467 23.8 60.14 22.88C60.2333 21.9467 60.3733 21.18 60.56 20.58C60.76 19.9667 60.9867 19.4667 61.24 19.08C61.6 18.5067 62.1867 18.0533 63 17.72C63.8133 17.3867 64.9667 17.22 66.46 17.22C67.5267 17.22 68.38 17.36 69.02 17.64C69.66 17.92 70.1267 18.2933 70.42 18.76C70.7133 19.2267 70.86 19.7533 70.86 20.34C70.86 21.2333 70.5867 21.9667 70.04 22.54C69.4933 23.1133 68.78 23.5667 67.9 23.9V23.98C68.86 24.0867 69.6067 24.4 70.14 24.92C70.6867 25.4267 70.96 26.1533 70.96 27.1C70.96 27.8333 70.76 28.5067 70.36 29.12C69.9733 29.72 69.4467 30.2467 68.78 30.7C68.1267 31.14 67.3933 31.4867 66.58 31.74C65.7667 31.98 64.9333 32.1 64.08 32.1ZM64.98 29.24C65.5267 29.24 66.0133 29.1533 66.44 28.98C66.8667 28.7933 67.2 28.5533 67.44 28.26C67.68 27.9533 67.8 27.6 67.8 27.2C67.8 26.76 67.5933 26.3933 67.18 26.1C66.7667 25.7933 66.1267 25.64 65.26 25.64C64.6467 25.64 64.1467 25.7933 63.76 26.1C63.3867 26.3933 63.2 26.8667 63.2 27.52C63.2 28.1333 63.3467 28.5733 63.64 28.84C63.9333 29.1067 64.38 29.24 64.98 29.24ZM65.04 23.16C65.8133 23.16 66.4533 22.9933 66.96 22.66C67.48 22.3133 67.74 21.86 67.74 21.3C67.74 20.8867 67.56 20.5533 67.2 20.3C66.8533 20.0467 66.3467 19.92 65.68 19.92C65 19.92 64.44 20.06 64 20.34C63.56 20.62 63.34 21.0733 63.34 21.7C63.34 22.22 63.4933 22.5933 63.8 22.82C64.1067 23.0467 64.52 23.16 65.04 23.16ZM81.9553 31.88C81.5286 31.88 81.1953 31.76 80.9553 31.52C80.7286 31.2667 80.5753 30.9467 80.4953 30.56C80.4153 30.16 80.3753 29.74 80.3753 29.3L80.4753 29.22C80.3153 29.7933 80.0353 30.2867 79.6353 30.7C79.2486 31.1133 78.7953 31.4333 78.2753 31.66C77.7686 31.8733 77.262 31.98 76.7553 31.98C76.0353 31.98 75.3953 31.82 74.8353 31.5C74.2886 31.1667 73.8553 30.6467 73.5353 29.94C73.242 29.2733 73.0086 28.4067 72.8353 27.34C72.6753 26.2733 72.5953 25.1733 72.5953 24.04C72.5953 23.4667 72.6153 22.94 72.6553 22.46C72.7086 21.9667 72.7886 21.56 72.8953 21.24C73.0286 20.8267 73.2353 20.5267 73.5153 20.34C73.7953 20.14 74.142 20.04 74.5553 20.04C75.0353 20.04 75.4153 20.2133 75.6953 20.56C75.9753 20.8933 76.142 21.3667 76.1953 21.98C76.2486 22.4067 76.282 22.92 76.2953 23.52C76.322 24.1067 76.3486 24.6933 76.3753 25.28C76.402 25.8667 76.4286 26.36 76.4553 26.76C76.5353 27.44 76.7086 27.94 76.9753 28.26C77.2553 28.58 77.602 28.74 78.0153 28.74C78.602 28.74 79.0486 28.5067 79.3553 28.04C79.662 27.56 79.8153 26.9 79.8153 26.06C79.8153 25.6333 79.7886 25.1467 79.7353 24.6C79.6953 24.0533 79.6486 23.52 79.5953 23C79.5553 22.48 79.5353 22.0533 79.5353 21.72C79.5353 20.9867 79.6686 20.46 79.9353 20.14C80.202 19.82 80.5753 19.66 81.0553 19.66C81.4553 19.66 81.7953 19.76 82.0753 19.96C82.3686 20.1467 82.5886 20.4133 82.7353 20.76C82.922 21.16 83.082 21.7 83.2153 22.38C83.3486 23.06 83.4553 23.8333 83.5353 24.7C83.6153 25.5533 83.6553 26.46 83.6553 27.42C83.6553 28.9133 83.5286 30.0333 83.2753 30.78C83.0353 31.5133 82.5953 31.88 81.9553 31.88ZM87.8073 35.98C86.954 35.98 86.5273 35.5 86.5273 34.54C86.5273 34.1 86.6673 33.58 86.9473 32.98C87.2273 32.3933 87.6273 31.78 88.1473 31.14C88.6807 30.4867 89.3073 29.8533 90.0273 29.24L90.0073 29.46C88.3273 27.9 87.054 26.5 86.1873 25.26C85.334 24.0067 84.9073 22.86 84.9073 21.82C84.9073 21.2067 85.0673 20.7267 85.3873 20.38C85.7073 20.0333 86.134 19.86 86.6673 19.86C87.5873 19.86 88.4407 20.46 89.2273 21.66C90.0273 22.86 90.7273 24.6667 91.3273 27.08H91.4073C91.8073 24.5333 92.314 22.66 92.9273 21.46C93.5407 20.2467 94.274 19.64 95.1273 19.64C95.5807 19.64 95.9207 19.7933 96.1473 20.1C96.3873 20.3933 96.5073 20.8133 96.5073 21.36C96.5073 21.7733 96.4273 22.2933 96.2673 22.92C96.1073 23.5333 95.8807 24.2267 95.5873 25C95.3073 25.76 94.974 26.5533 94.5873 27.38C94.2007 28.2067 93.774 29.0267 93.3073 29.84C92.1207 31.9733 91.094 33.5267 90.2273 34.5C89.3607 35.4867 88.554 35.98 87.8073 35.98ZM104.495 17.78C104.948 17.78 105.388 17.9667 105.815 18.34C106.255 18.7 106.695 19.2667 107.135 20.04C107.588 20.8133 108.068 21.8067 108.575 23.02C109.095 24.2333 109.661 25.6867 110.275 27.38H110.355C110.261 26.8467 110.175 26.26 110.095 25.62C110.028 24.98 109.961 24.3333 109.895 23.68C109.828 23.0267 109.775 22.4133 109.735 21.84C109.708 21.2667 109.695 20.7733 109.695 20.36C109.695 19.24 109.828 18.44 110.095 17.96C110.375 17.48 110.788 17.24 111.335 17.24C111.721 17.24 112.035 17.3333 112.275 17.52C112.515 17.7067 112.715 17.9867 112.875 18.36C113.195 19.0933 113.415 20.1 113.535 21.38C113.668 22.6467 113.735 24.1 113.735 25.74C113.735 27.0733 113.675 28.1933 113.555 29.1C113.448 29.9933 113.235 30.6667 112.915 31.12C112.608 31.5733 112.155 31.8 111.555 31.8C111.168 31.8 110.781 31.6867 110.395 31.46C110.008 31.2333 109.621 30.8733 109.235 30.38C108.861 29.8867 108.468 29.2467 108.055 28.46C107.655 27.66 107.228 26.6933 106.775 25.56C106.335 24.4267 105.855 23.1067 105.335 21.6H105.255C105.361 22.1867 105.455 22.8867 105.535 23.7C105.615 24.5133 105.675 25.3533 105.715 26.22C105.768 27.0733 105.795 27.8533 105.795 28.56C105.795 29.8533 105.635 30.7733 105.315 31.32C105.008 31.8667 104.528 32.14 103.875 32.14C103.155 32.14 102.641 31.86 102.335 31.3C102.041 30.7267 101.895 29.8467 101.895 28.66C101.895 28.0067 101.908 27.26 101.935 26.42C101.975 25.5667 102.021 24.6933 102.075 23.8C102.141 22.8933 102.228 22.0333 102.335 21.22C102.481 20.0467 102.701 19.18 102.995 18.62C103.301 18.06 103.801 17.78 104.495 17.78ZM120.882 32.06C119.762 32.06 118.782 31.8267 117.942 31.36C117.116 30.88 116.476 30.2 116.022 29.32C115.569 28.44 115.342 27.3933 115.342 26.18C115.342 24.9133 115.569 23.8067 116.022 22.86C116.489 21.9133 117.142 21.1733 117.982 20.64C118.836 20.1067 119.822 19.84 120.942 19.84C122.142 19.84 123.182 20.1 124.062 20.62C124.942 21.1267 125.622 21.84 126.102 22.76C126.596 23.68 126.842 24.7533 126.842 25.98C126.842 27.2333 126.596 28.3133 126.102 29.22C125.609 30.1267 124.916 30.8267 124.022 31.32C123.142 31.8133 122.096 32.06 120.882 32.06ZM121.162 28.8C121.869 28.8 122.429 28.52 122.842 27.96C123.256 27.4 123.462 26.66 123.462 25.74C123.462 24.8067 123.256 24.0667 122.842 23.52C122.429 22.96 121.869 22.68 121.162 22.68C120.429 22.68 119.849 22.96 119.422 23.52C119.009 24.0667 118.802 24.8067 118.802 25.74C118.802 26.66 119.009 27.4 119.422 27.96C119.849 28.52 120.429 28.8 121.162 28.8ZM127.818 23.88C127.818 22.4933 128.011 21.4933 128.398 20.88C128.784 20.2667 129.291 19.96 129.918 19.96C130.318 19.96 130.624 20.0867 130.838 20.34C131.051 20.58 131.198 20.9067 131.278 21.32C131.371 21.7333 131.418 22.1933 131.418 22.7C131.418 23.18 131.418 23.7333 131.418 24.36C131.418 24.9867 131.418 25.6333 131.418 26.3C131.418 26.9667 131.418 27.5933 131.418 28.18H131.498C131.871 26.5667 132.251 25.2667 132.638 24.28C133.038 23.28 133.438 22.5533 133.838 22.1C134.251 21.6467 134.658 21.42 135.058 21.42C135.498 21.42 135.918 21.6467 136.318 22.1C136.731 22.5533 137.138 23.2667 137.537 24.24C137.951 25.2 138.364 26.4467 138.778 27.98H138.858C138.858 27.02 138.851 26.0067 138.838 24.94C138.838 23.8733 138.838 22.9 138.838 22.02C138.838 21.1533 138.991 20.52 139.298 20.12C139.618 19.7067 140.058 19.5 140.618 19.5C141.298 19.5 141.791 19.8 142.098 20.4C142.418 20.9867 142.578 21.78 142.578 22.78C142.578 23.5133 142.538 24.3 142.458 25.14C142.378 25.9667 142.264 26.7667 142.118 27.54C141.984 28.3133 141.824 28.9867 141.638 29.56C141.358 30.4133 141.024 31.06 140.638 31.5C140.264 31.94 139.778 32.16 139.178 32.16C138.698 32.16 138.211 31.9267 137.717 31.46C137.224 30.98 136.764 30.2333 136.338 29.22C135.911 28.2067 135.531 26.8867 135.198 25.26H135.118C134.798 26.8067 134.404 28.0667 133.938 29.04C133.471 30 132.971 30.7067 132.438 31.16C131.918 31.6133 131.404 31.84 130.898 31.84C130.298 31.84 129.784 31.5933 129.358 31.1C128.944 30.6067 128.618 29.8467 128.378 28.82C128.258 28.3 128.158 27.7467 128.078 27.16C127.998 26.56 127.931 25.9733 127.878 25.4C127.838 24.8267 127.818 24.32 127.818 23.88ZM143.445 30.58C143.445 30.14 143.545 29.7867 143.745 29.52C143.945 29.24 144.198 29.0333 144.505 28.9C144.825 28.7667 145.158 28.7 145.505 28.7C146.092 28.7 146.538 28.8533 146.845 29.16C147.165 29.4667 147.325 29.88 147.325 30.4C147.325 31.04 147.125 31.5067 146.725 31.8C146.338 32.08 145.865 32.22 145.305 32.22C144.705 32.22 144.245 32.0733 143.925 31.78C143.605 31.4733 143.445 31.0733 143.445 30.58ZM145.605 17.14C146.232 17.14 146.672 17.4133 146.925 17.96C147.178 18.4933 147.305 19.26 147.305 20.26C147.305 21.1933 147.252 22.1333 147.145 23.08C147.052 24.0133 146.918 24.8067 146.745 25.46C146.558 26.18 146.332 26.7 146.065 27.02C145.812 27.34 145.498 27.5 145.125 27.5C144.565 27.5 144.172 27.0267 143.945 26.08C143.718 25.1333 143.605 23.5933 143.605 21.46C143.605 20.3933 143.658 19.5467 143.765 18.92C143.885 18.2933 144.092 17.84 144.385 17.56C144.678 17.28 145.085 17.14 145.605 17.14Z" fill="white"/>
</g>
<g filter="url(#filter3_d_1861_17)">
<path d="M48.1128 31.8144C44.2225 34.7057 38.5838 36.2483 33.7289 36.2483C26.9216 36.2483 20.7933 33.7096 16.157 29.4873C15.7928 29.1552 16.1191 28.7027 16.5563 28.9613C21.5597 31.8967 27.7463 33.6626 34.1369 33.6626C38.4468 33.6626 43.188 32.7635 47.5475 30.8977C48.2061 30.6156 48.7568 31.3325 48.1128 31.8144Z" fill="#FF9900"/>
<path d="M49.8105 29.7335C49.3065 29.106 46.4667 29.437 45.1921 29.5838C44.8038 29.6299 44.7445 29.3017 45.0943 29.0657C47.356 27.5197 51.0673 27.9659 51.5001 28.4841C51.9329 29.0052 51.3875 32.6182 49.2621 34.3426C48.936 34.6074 48.6247 34.4664 48.77 34.1152C49.2472 32.9579 50.3173 30.364 49.8105 29.7335Z" fill="#FF9900"/>
</g>
<defs>
<filter id="filter0_d_1861_17" x="2" y="4" width="168" height="46" filterUnits="userSpaceOnUse" color-interpolation-filters="sRGB">
<feFlood flood-opacity="0" result="BackgroundImageFix"/>
<feColorMatrix in="SourceAlpha" type="matrix" values="0 0 0 0 0 0 0 0 0 0 0 0 0 0 0 0 0 0 127 0" result="hardAlpha"/>
<feOffset dy="2"/>
<feGaussianBlur stdDeviation="1"/>
<feComposite in2="hardAlpha" operator="out"/>
<feColorMatrix type="matrix" values="0 0 0 0 0 0 0 0 0 0 0 0 0 0 0 0 0 0 0.25 0"/>
<feBlend mode="normal" in2="BackgroundImageFix" result="effect1_dropShadow_1861_17"/>
<feBlend mode="normal" in="SourceGraphic" in2="effect1_dropShadow_1861_17" result="shape"/>
</filter>
<filter id="filter1_d_1861_17" x="24" y="16" width="19" height="17" filterUnits="userSpaceOnUse" color-interpolation-filters="sRGB">
<feFlood flood-opacity="0" result="BackgroundImageFix"/>
<feColorMatrix in="SourceAlpha" type="matrix" values="0 0 0 0 0 0 0 0 0 0 0 0 0 0 0 0 0 0 127 0" result="hardAlpha"/>
<feOffset dy="2"/>
<feGaussianBlur stdDeviation="1"/>
<feComposite in2="hardAlpha" operator="out"/>
<feColorMatrix type="matrix" values="0 0 0 0 0 0 0 0 0 0 0 0 0 0 0 0 0 0 0.25 0"/>
<feBlend mode="normal" in2="BackgroundImageFix" result="effect1_dropShadow_1861_17"/>
<feBlend mode="normal" in="SourceGraphic" in2="effect1_dropShadow_1861_17" result="shape"/>
</filter>
<filter id="filter2_d_1861_17" x="58" y="17.1406" width="91.3242" height="22.8398" filterUnits="userSpaceOnUse" color-interpolation-filters="sRGB">
<feFlood flood-opacity="0" result="BackgroundImageFix"/>
<feColorMatrix in="SourceAlpha" type="matrix" values="0 0 0 0 0 0 0 0 0 0 0 0 0 0 0 0 0 0 127 0" result="hardAlpha"/>
<feOffset dy="2"/>
<feGaussianBlur stdDeviation="1"/>
<feComposite in2="hardAlpha" operator="out"/>
<feColorMatrix type="matrix" values="0 0 0 0 0 0 0 0 0 0 0 0 0 0 0 0 0 0 0.25 0"/>
<feBlend mode="normal" in2="BackgroundImageFix" result="effect1_dropShadow_1861_17"/>
<feBlend mode="normal" in="SourceGraphic" in2="effect1_dropShadow_1861_17" result="shape"/>
</filter>
<filter id="filter3_d_1861_17" x="14" y="28" width="39.6367" height="12.248" filterUnits="userSpaceOnUse" color-interpolation-filters="sRGB">
<feFlood flood-opacity="0" result="BackgroundImageFix"/>
<feColorMatrix in="SourceAlpha" type="matrix" values="0 0 0 0 0 0 0 0 0 0 0 0 0 0 0 0 0 0 127 0" result="hardAlpha"/>
<feOffset dy="2"/>
<feGaussianBlur stdDeviation="1"/>
<feComposite in2="hardAlpha" operator="out"/>
<feColorMatrix type="matrix" values="0 0 0 0 0 0 0 0 0 0 0 0 0 0 0 0 0 0 0.25 0"/>
<feBlend mode="normal" in2="BackgroundImageFix" result="effect1_dropShadow_1861_17"/>
<feBlend mode="normal" in="SourceGraphic" in2="effect1_dropShadow_1861_17" result="shape"/>
</filter>
</defs>
</svg>
